<?xml version="1.0" encoding="UTF-8"?>
<svg id="Warstwa_1" data-name="Warstwa 1" xmlns="http://www.w3.org/2000/svg" xmlns:xlink="http://www.w3.org/1999/xlink" viewBox="0 0 304.85 289.53">
  <defs>
    <style>
      .cls-1 {
        fill: url(#Gradient_bez_nazwy_8);
      }

      .cls-1, .cls-2 {
        stroke-width: 0px;
      }

      .cls-2 {
        fill: #fff;
      }
    </style>
    <linearGradient id="Gradient_bez_nazwy_8" x1="140.59" y1="63.95" x2="139.03" y2="232.05" gradientUnits="userSpaceOnUse">
      <stop offset="0" stop-color="#01003d"/>
      <stop offset=".08" stop-color="#09084c"/>
      <stop offset=".23" stop-color="#1f1f76"/>
      <stop offset=".43" stop-color="#4040b2"/>
      <stop offset=".76" stop-color="#af7067"/>
      <stop offset=".95" stop-color="#ef7f11"/>
    </linearGradient>
  </defs>
  <rect x="40" y="54" width="200" height="200" rx="35" ry="35" fill="white" />
  <path class="cls-1" d="m159.9,107.39c-14.93,0-28.66,5.1-39.55,13.66-.9.45-1.86.64-2.94.64-3.71,0-6.72-3.01-6.72-6.72,0-1.08.26-2.09.71-2.99h0c1.97-3.94,3.09-8.39,3.09-13.1,0-16.19-13.12-29.31-29.31-29.31s-29.31,13.12-29.31,29.31,13.12,29.31,29.31,29.31c3.63,0,7.11-.67,10.32-1.87,1.06-.53,2.25-.85,3.51-.85,4.32,0,7.83,3.5,7.83,7.83,0,1.26-.31,2.45-.84,3.51h0c-6.44,10-10.18,21.9-10.18,34.68,0,35.39,28.69,64.08,64.08,64.08s64.08-28.69,64.08-64.08-28.69-64.08-64.08-64.08Z"/>
  <path class="cls-2" d="m95.85,112.05c-7.82.81-14.93-5.88-15.87-14.94-.86-8.33,3.78-15.75,10.6-17.54-1.87-.39-3.82-.51-5.82-.3-10.38,1.08-17.92,10.36-16.84,20.74,1.08,10.38,10.36,17.92,20.74,16.84,5.07-.52,9.45-3.01,12.49-6.62-1.59.98-3.38,1.62-5.31,1.82Z"/>
</svg>
